ffmpeg started on 2025-06-06 at 19:03:33
Report written to "D:\Convert\FFMetrics\reports\ssim_report-6.txt"
Log level: 32
Command line:
ffmpeg -hide_banner -nostdin -i "G:\\\xc0\xed\xe8\xec\xe5\\\xce\xed\xe3\xee\xe8\xed\xe3\xe8\\!_36_\xce\xf1\xe5\xed\xfc_2024\\DreamCast\\\xcf\xf3\xed\xe8\xf0\xf3 - \xec\xe8\xeb\xe0\xff \xf1\xeb\xe8\xe7\xfc\\[DC] Puniru wa Kawaii Slime - 11_Telegram_HEVC.mkv" -i "G:\\\xc0\xed\xe8\xec\xe5\\\xce\xed\xe3\xee\xe8\xed\xe3\xe8\\!_36_\xce\xf1\xe5\xed\xfc_2024\\DreamCast\\\xcf\xf3\xed\xe8\xf0\xf3 - \xec\xe8\xeb\xe0\xff \xf1\xeb\xe8\xe7\xfc\\[DC] Puniru wa Kawaii Slime - 11_Telegram.mp4" -lavfi "[0:v]settb=AVTB,setpts=PTS-STARTPTS,format=pix_fmts=yuv420p10,fps=24000/1001,scale=1920:1080:flags=bicubic[main];[1:v]settb=AVTB,setpts=PTS-STARTPTS,format=pix_fmts=yuv420p,fps=24000/1001,scale=1920:1080:flags=bicubic[ref];[main][ref]ssim=eof_action=endall:stats_file='D\\:/Convert/FFMetrics/logs/ssim_logfile-6.txt'" -f null -
Input #0, matroska,webm, from 'G:\Аниме\Онгоинги\!_36_Осень_2024\DreamCast\Пуниру - милая слизь\[DC] Puniru wa Kawaii Slime - 11_Telegram_HEVC.mkv':
  Metadata:
    COMPATIBLE_BRANDS: isomiso2avc1mp41
    MAJOR_BRAND     : isom
    MINOR_VERSION   : 512
    ENCODER         : Lavf61.7.100
  Duration: 00:23:56.72, start: -0.021000, bitrate: 1229 kb/s
  Stream #0:0: Video: hevc (Main 10), yuv420p10le(tv, bt709, progressive), 1920x1080 [SAR 1:1 DAR 16:9], 23.98 fps, 23.98 tbr, 1k tbn (default)
      Metadata:
        HANDLER_NAME    : VideoHandler
        VENDOR_ID       : [0][0][0][0]
        ENCODER         : Lavc61.19.100 libx265
        BPS             : 1031015
        DURATION        : 00:23:56.559708333
        NUMBER_OF_FRAMES: 34443
        NUMBER_OF_BYTES : 185139355
        _STATISTICS_WRITING_APP: mkvpropedit v66.0.0 ('Josie') 64-bit
        _STATISTICS_WRITING_DATE_UTC: 2025-06-03 13:46:15
        _STATISTICS_TAGS: BPS DURATION NUMBER_OF_FRAMES NUMBER_OF_BYTES
  Stream #0:1: Audio: aac (LC), 48000 Hz, stereo, fltp (default)
      Metadata:
        HANDLER_NAME    : SoundHandler
        VENDOR_ID       : [0][0][0][0]
        ENCODER         : Lavc61.19.100 aac
        BPS             : 194250
        DURATION        : 00:23:56.714000000
        NUMBER_OF_FRAMES: 67347
        NUMBER_OF_BYTES : 34885321
        _STATISTICS_WRITING_APP: mkvpropedit v66.0.0 ('Josie') 64-bit
        _STATISTICS_WRITING_DATE_UTC: 2025-06-03 13:46:15
        _STATISTICS_TAGS: BPS DURATION NUMBER_OF_FRAMES NUMBER_OF_BYTES
Input #1, mov,mp4,m4a,3gp,3g2,mj2, from 'G:\Аниме\Онгоинги\!_36_Осень_2024\DreamCast\Пуниру - милая слизь\[DC] Puniru wa Kawaii Slime - 11_Telegram.mp4':
  Metadata:
    major_brand     : isom
    minor_version   : 512
    compatible_brands: isomiso2avc1mp41
    encoder         : Lavf60.16.100
  Duration: 00:23:56.68, start: 0.000000, bitrate: 3729 kb/s
  Stream #1:0[0x1](und): Video: h264 (High) (avc1 / 0x31637661), yuv420p(tv, bt709, progressive), 1920x1080 [SAR 1:1 DAR 16:9], 3582 kb/s, 23.98 fps, 23.98 tbr, 24k tbn (default)
      Metadata:
        handler_name    : VideoHandler
        vendor_id       : [0][0][0][0]
        encoder         : Lavc60.31.102 h264_qsv
  Stream #1:1[0x2](und): Audio: aac (HE-AACv2) (mp4a / 0x6134706D), 48000 Hz, stereo, fltp, 144 kb/s (default)
      Metadata:
        handler_name    : SoundHandler
        vendor_id       : [0][0][0][0]
Stream mapping:
  Stream #0:0 (hevc) -> settb:default
  Stream #1:0 (h264) -> settb:default
  ssim:default -> Stream #0:0 (wrapped_avframe)
  Stream #0:1 -> #0:1 (aac (native) -> pcm_s16le (native))
Output #0, null, to 'pipe:':
  Metadata:
    COMPATIBLE_BRANDS: isomiso2avc1mp41
    MAJOR_BRAND     : isom
    MINOR_VERSION   : 512
    encoder         : Lavf61.7.100
  Stream #0:0: Video: wrapped_avframe, yuv420p10le(tv, bt709, progressive), 1920x1080 [SAR 1:1 DAR 16:9], q=2-31, 200 kb/s, 23.98 fps, 23.98 tbn
      Metadata:
        encoder         : Lavc61.19.100 wrapped_avframe
  Stream #0:1: Audio: pcm_s16le, 48000 Hz, stereo, s16, 1536 kb/s (default)
      Metadata:
        HANDLER_NAME    : SoundHandler
        VENDOR_ID       : [0][0][0][0]
        _STATISTICS_TAGS: BPS DURATION NUMBER_OF_FRAMES NUMBER_OF_BYTES
        BPS             : 194250
        DURATION        : 00:23:56.714000000
        NUMBER_OF_FRAMES: 67347
        NUMBER_OF_BYTES : 34885321
        _STATISTICS_WRITING_APP: mkvpropedit v66.0.0 ('Josie') 64-bit
        _STATISTICS_WRITING_DATE_UTC: 2025-06-03 13:46:15
        encoder         : Lavc61.19.100 pcm_s16le
frame=  173 fps=0.0 q=-0.0 size=N/A time=00:00:07.21 bitrate=N/A speed=14.1x    frame=  373 fps=361 q=-0.0 size=N/A time=00:00:15.55 bitrate=N/A speed=15.1x    frame=  570 fps=368 q=-0.0 size=N/A time=00:00:23.77 bitrate=N/A speed=15.4x    frame=  823 fps=399 q=-0.0 size=N/A time=00:00:34.32 bitrate=N/A speed=16.6x    frame= 1093 fps=423 q=-0.0 size=N/A time=00:00:45.58 bitrate=N/A speed=17.6x    frame= 1307 fps=423 q=-0.0 size=N/A time=00:00:54.51 bitrate=N/A speed=17.6x    frame= 1535 fps=425 q=-0.0 size=N/A time=00:01:04.02 bitrate=N/A speed=17.7x    frame= 1674 fps=405 q=-0.0 size=N/A time=00:01:09.81 bitrate=N/A speed=16.9x    frame= 1902 fps=410 q=-0.0 size=N/A time=00:01:19.32 bitrate=N/A speed=17.1x    frame= 2179 fps=423 q=-0.0 size=N/A time=00:01:30.88 bitrate=N/A speed=17.6x    frame= 2432 fps=429 q=-0.0 size=N/A time=00:01:41.43 bitrate=N/A speed=17.9x    frame= 2719 fps=439 q=-0.0 size=N/A time=00:01:53.40 bitrate=N/A speed=18.3x    frame= 2987 fps=446 q=-0.0 size=N/A time=00:02:04.58 bitrate=N/A speed=18.6x    frame= 3269 fps=453 q=-0.0 size=N/A time=00:02:16.34 bitrate=N/A speed=18.9x    frame= 3506 fps=453 q=-0.0 size=N/A time=00:02:26.22 bitrate=N/A speed=18.9x    frame= 3751 fps=455 q=-0.0 size=N/A time=00:02:36.44 bitrate=N/A speed=  19x    frame= 4031 fps=460 q=-0.0 size=N/A time=00:02:48.12 bitrate=N/A speed=19.2x    frame= 4252 fps=458 q=-0.0 size=N/A time=00:02:57.34 bitrate=N/A speed=19.1x    frame= 4498 fps=459 q=-0.0 size=N/A time=00:03:07.60 bitrate=N/A speed=19.2x    frame= 4699 fps=456 q=-0.0 size=N/A time=00:03:15.98 bitrate=N/A speed=  19x    frame= 4808 fps=444 q=-0.0 size=N/A time=00:03:20.53 bitrate=N/A speed=18.5x    frame= 4978 fps=439 q=-0.0 size=N/A time=00:03:27.62 bitrate=N/A speed=18.3x    frame= 5241 fps=442 q=-0.0 size=N/A time=00:03:38.59 bitrate=N/A speed=18.4x    frame= 5462 fps=441 q=-0.0 size=N/A time=00:03:47.81 bitrate=N/A speed=18.4x    frame= 5642 fps=438 q=-0.0 size=N/A time=00:03:55.31 bitrate=N/A speed=18.3x    frame= 5843 fps=436 q=-0.0 size=N/A time=00:04:03.70 bitrate=N/A speed=18.2x    frame= 6064 fps=436 q=-0.0 size=N/A time=00:04:12.91 bitrate=N/A speed=18.2x    frame= 6292 fps=436 q=-0.0 size=N/A time=00:04:22.42 bitrate=N/A speed=18.2x    frame= 6479 fps=433 q=-0.0 size=N/A time=00:04:30.22 bitrate=N/A speed=18.1x    frame= 6632 fps=429 q=-0.0 size=N/A time=00:04:36.60 bitrate=N/A speed=17.9x    frame= 6806 fps=426 q=-0.0 size=N/A time=00:04:43.86 bitrate=N/A speed=17.8x    frame= 7008 fps=425 q=-0.0 size=N/A time=00:04:52.29 bitrate=N/A speed=17.7x    frame= 7210 fps=424 q=-0.0 size=N/A time=00:05:00.71 bitrate=N/A speed=17.7x    frame= 7444 fps=425 q=-0.0 size=N/A time=00:05:10.47 bitrate=N/A speed=17.7x    frame= 7719 fps=428 q=-0.0 size=N/A time=00:05:21.94 bitrate=N/A speed=17.8x    frame= 7995 fps=431 q=-0.0 size=N/A time=00:05:33.45 bitrate=N/A speed=  18x    frame= 8279 fps=434 q=-0.0 size=N/A time=00:05:45.30 bitrate=N/A speed=18.1x    frame= 8558 fps=437 q=-0.0 size=N/A time=00:05:56.93 bitrate=N/A speed=18.2x    frame= 8837 fps=439 q=-0.0 size=N/A time=00:06:08.57 bitrate=N/A speed=18.3x    frame= 9106 fps=442 q=-0.0 size=N/A time=00:06:19.79 bitrate=N/A speed=18.4x    frame= 9377 fps=444 q=-0.0 size=N/A time=00:06:31.09 bitrate=N/A speed=18.5x    frame= 9636 fps=445 q=-0.0 size=N/A time=00:06:41.90 bitrate=N/A speed=18.6x    frame= 9900 fps=447 q=-0.0 size=N/A time=00:06:52.91 bitrate=N/A speed=18.6x    frame=10174 fps=449 q=-0.0 size=N/A time=00:07:04.34 bitrate=N/A speed=18.7x    frame=10419 fps=449 q=-0.0 size=N/A time=00:07:14.55 bitrate=N/A speed=18.7x    frame=10594 fps=447 q=-0.0 size=N/A time=00:07:21.85 bitrate=N/A speed=18.6x    frame=10717 fps=442 q=-0.0 size=N/A time=00:07:26.98 bitrate=N/A speed=18.4x    frame=10852 fps=439 q=-0.0 size=N/A time=00:07:32.61 bitrate=N/A speed=18.3x    frame=11108 fps=440 q=-0.0 size=N/A time=00:07:43.29 bitrate=N/A speed=18.3x    frame=11379 fps=441 q=-0.0 size=N/A time=00:07:54.59 bitrate=N/A speed=18.4x    frame=11656 fps=443 q=-0.0 size=N/A time=00:08:06.15 bitrate=N/A speed=18.5x    frame=11950 fps=446 q=-0.0 size=N/A time=00:08:18.41 bitrate=N/A speed=18.6x    frame=12215 fps=447 q=-0.0 size=N/A time=00:08:29.46 bitrate=N/A speed=18.6x    frame=12490 fps=449 q=-0.0 size=N/A time=00:08:40.93 bitrate=N/A speed=18.7x    frame=12751 fps=450 q=-0.0 size=N/A time=00:08:51.82 bitrate=N/A speed=18.8x    frame=13014 fps=451 q=-0.0 size=N/A time=00:09:02.79 bitrate=N/A speed=18.8x    frame=13296 fps=452 q=-0.0 size=N/A time=00:09:14.55 bitrate=N/A speed=18.9x    frame=13550 fps=453 q=-0.0 size=N/A time=00:09:25.14 bitrate=N/A speed=18.9x    frame=13829 fps=455 q=-0.0 size=N/A time=00:09:36.78 bitrate=N/A speed=  19x    frame=14077 fps=455 q=-0.0 size=N/A time=00:09:47.12 bitrate=N/A speed=  19x    frame=14314 fps=455 q=-0.0 size=N/A time=00:09:57.01 bitrate=N/A speed=  19x    frame=14575 fps=456 q=-0.0 size=N/A time=00:10:07.89 bitrate=N/A speed=  19x    frame=14847 fps=457 q=-0.0 size=N/A time=00:10:19.24 bitrate=N/A speed=19.1x    frame=15101 fps=458 q=-0.0 size=N/A time=00:10:29.83 bitrate=N/A speed=19.1x    frame=15359 fps=458 q=-0.0 size=N/A time=00:10:40.59 bitrate=N/A speed=19.1x    frame=15598 fps=458 q=-0.0 size=N/A time=00:10:50.56 bitrate=N/A speed=19.1x    frame=15820 fps=458 q=-0.0 size=N/A time=00:10:59.82 bitrate=N/A speed=19.1x    frame=16037 fps=457 q=-0.0 size=N/A time=00:11:08.87 bitrate=N/A speed=19.1x    frame=16310 fps=458 q=-0.0 size=N/A time=00:11:20.26 bitrate=N/A speed=19.1x    frame=16588 fps=460 q=-0.0 size=N/A time=00:11:31.85 bitrate=N/A speed=19.2x    frame=16849 fps=460 q=-0.0 size=N/A time=00:11:42.74 bitrate=N/A speed=19.2x    frame=17107 fps=461 q=-0.0 size=N/A time=00:11:53.50 bitrate=N/A speed=19.2x    frame=17385 fps=462 q=-0.0 size=N/A time=00:12:05.09 bitrate=N/A speed=19.3x    frame=17618 fps=462 q=-0.0 size=N/A time=00:12:14.81 bitrate=N/A speed=19.3x    frame=17877 fps=462 q=-0.0 size=N/A time=00:12:25.61 bitrate=N/A speed=19.3x    frame=18131 fps=463 q=-0.0 size=N/A time=00:12:36.21 bitrate=N/A speed=19.3x    frame=18411 fps=464 q=-0.0 size=N/A time=00:12:47.89 bitrate=N/A speed=19.3x    frame=18656 fps=464 q=-0.0 size=N/A time=00:12:58.11 bitrate=N/A speed=19.3x    frame=18898 fps=464 q=-0.0 size=N/A time=00:13:08.20 bitrate=N/A speed=19.3x    frame=19149 fps=464 q=-0.0 size=N/A time=00:13:18.67 bitrate=N/A speed=19.4x    frame=19398 fps=464 q=-0.0 size=N/A time=00:13:29.05 bitrate=N/A speed=19.4x    frame=19665 fps=465 q=-0.0 size=N/A time=00:13:40.19 bitrate=N/A speed=19.4x    frame=19933 fps=466 q=-0.0 size=N/A time=00:13:51.37 bitrate=N/A speed=19.4x    frame=20209 fps=467 q=-0.0 size=N/A time=00:14:02.88 bitrate=N/A speed=19.5x    frame=20482 fps=467 q=-0.0 size=N/A time=00:14:14.27 bitrate=N/A speed=19.5x    frame=20775 fps=469 q=-0.0 size=N/A time=00:14:26.49 bitrate=N/A speed=19.5x    frame=21040 fps=469 q=-0.0 size=N/A time=00:14:37.54 bitrate=N/A speed=19.6x    frame=21318 fps=470 q=-0.0 size=N/A time=00:14:49.13 bitrate=N/A speed=19.6x    frame=21596 fps=471 q=-0.0 size=N/A time=00:15:00.73 bitrate=N/A speed=19.6x    frame=21876 fps=471 q=-0.0 size=N/A time=00:15:12.41 bitrate=N/A speed=19.7x    frame=22098 fps=471 q=-0.0 size=N/A time=00:15:21.67 bitrate=N/A speed=19.6x    frame=22312 fps=470 q=-0.0 size=N/A time=00:15:30.59 bitrate=N/A speed=19.6x    frame=22532 fps=470 q=-0.0 size=N/A time=00:15:39.77 bitrate=N/A speed=19.6x    frame=22758 fps=470 q=-0.0 size=N/A time=00:15:49.19 bitrate=N/A speed=19.6x    frame=23001 fps=470 q=-0.0 size=N/A time=00:15:59.33 bitrate=N/A speed=19.6x    frame=23252 fps=470 q=-0.0 size=N/A time=00:16:09.80 bitrate=N/A speed=19.6x    frame=23527 fps=470 q=-0.0 size=N/A time=00:16:21.27 bitrate=N/A speed=19.6x    frame=23758 fps=470 q=-0.0 size=N/A time=00:16:30.90 bitrate=N/A speed=19.6x    frame=24044 fps=471 q=-0.0 size=N/A time=00:16:42.83 bitrate=N/A speed=19.6x    frame=24338 fps=472 q=-0.0 size=N/A time=00:16:55.09 bitrate=N/A speed=19.7x    frame=24616 fps=473 q=-0.0 size=N/A time=00:17:06.69 bitrate=N/A speed=19.7x    frame=24869 fps=473 q=-0.0 size=N/A time=00:17:17.24 bitrate=N/A speed=19.7x    frame=25111 fps=473 q=-0.0 size=N/A time=00:17:27.33 bitrate=N/A speed=19.7x    frame=25370 fps=473 q=-0.0 size=N/A time=00:17:38.14 bitrate=N/A speed=19.7x    frame=25636 fps=473 q=-0.0 size=N/A time=00:17:49.23 bitrate=N/A speed=19.7x    frame=25886 fps=474 q=-0.0 size=N/A time=00:17:59.66 bitrate=N/A speed=19.8x    frame=26123 fps=473 q=-0.0 size=N/A time=00:18:09.54 bitrate=N/A speed=19.7x    frame=26374 fps=474 q=-0.0 size=N/A time=00:18:20.01 bitrate=N/A speed=19.8x    frame=26641 fps=474 q=-0.0 size=N/A time=00:18:31.15 bitrate=N/A speed=19.8x    frame=26908 fps=474 q=-0.0 size=N/A time=00:18:42.28 bitrate=N/A speed=19.8x    frame=27158 fps=474 q=-0.0 size=N/A time=00:18:52.71 bitrate=N/A speed=19.8x    frame=27411 fps=475 q=-0.0 size=N/A time=00:19:03.26 bitrate=N/A speed=19.8x    frame=27622 fps=474 q=-0.0 size=N/A time=00:19:12.06 bitrate=N/A speed=19.8x    frame=27830 fps=473 q=-0.0 size=N/A time=00:19:20.74 bitrate=N/A speed=19.7x    frame=28051 fps=473 q=-0.0 size=N/A time=00:19:29.96 bitrate=N/A speed=19.7x    frame=28302 fps=473 q=-0.0 size=N/A time=00:19:40.42 bitrate=N/A speed=19.7x    frame=28576 fps=474 q=-0.0 size=N/A time=00:19:51.85 bitrate=N/A speed=19.8x    frame=28843 fps=474 q=-0.0 size=N/A time=00:20:02.99 bitrate=N/A speed=19.8x    frame=29113 fps=474 q=-0.0 size=N/A time=00:20:14.25 bitrate=N/A speed=19.8x    frame=29355 fps=474 q=-0.0 size=N/A time=00:20:24.34 bitrate=N/A speed=19.8x    frame=29596 fps=474 q=-0.0 size=N/A time=00:20:34.39 bitrate=N/A speed=19.8x    frame=29878 fps=475 q=-0.0 size=N/A time=00:20:46.16 bitrate=N/A speed=19.8x    frame=30129 fps=475 q=-0.0 size=N/A time=00:20:56.63 bitrate=N/A speed=19.8x    frame=30384 fps=475 q=-0.0 size=N/A time=00:21:07.26 bitrate=N/A speed=19.8x    frame=30631 fps=475 q=-0.0 size=N/A time=00:21:17.56 bitrate=N/A speed=19.8x    frame=30849 fps=475 q=-0.0 size=N/A time=00:21:26.66 bitrate=N/A speed=19.8x    frame=31038 fps=474 q=-0.0 size=N/A time=00:21:34.54 bitrate=N/A speed=19.8x    frame=31270 fps=474 q=-0.0 size=N/A time=00:21:44.21 bitrate=N/A speed=19.8x    frame=31475 fps=473 q=-0.0 size=N/A time=00:21:52.76 bitrate=N/A speed=19.7x    frame=31676 fps=473 q=-0.0 size=N/A time=00:22:01.15 bitrate=N/A speed=19.7x    frame=31894 fps=472 q=-0.0 size=N/A time=00:22:10.24 bitrate=N/A speed=19.7x    frame=32127 fps=472 q=-0.0 size=N/A time=00:22:19.96 bitrate=N/A speed=19.7x    frame=32321 fps=471 q=-0.0 size=N/A time=00:22:28.05 bitrate=N/A speed=19.7x    frame=32502 fps=470 q=-0.0 size=N/A time=00:22:35.60 bitrate=N/A speed=19.6x    frame=32678 fps=469 q=-0.0 size=N/A time=00:22:42.94 bitrate=N/A speed=19.6x    frame=32888 fps=469 q=-0.0 size=N/A time=00:22:51.70 bitrate=N/A speed=19.6x    frame=33146 fps=469 q=-0.0 size=N/A time=00:23:02.46 bitrate=N/A speed=19.6x    frame=33402 fps=469 q=-0.0 size=N/A time=00:23:13.14 bitrate=N/A speed=19.6x    frame=33684 fps=470 q=-0.0 size=N/A time=00:23:24.90 bitrate=N/A speed=19.6x    frame=33922 fps=470 q=-0.0 size=N/A time=00:23:34.83 bitrate=N/A speed=19.6x    frame=34176 fps=470 q=-0.0 size=N/A time=00:23:45.42 bitrate=N/A speed=19.6x    frame=34403 fps=470 q=-0.0 size=N/A time=00:23:54.89 bitrate=N/A speed=19.6x    [Parsed_ssim_10 @ 000001c68caa99c0] SSIM Y:0.994758 (22.804730) U:0.993717 (22.018654) V:0.993593 (21.933448) All:0.994390 (22.510502)
[out#0/null @ 000001c68a174580] video:14800KiB audio:269388KiB subtitle:0KiB other streams:0KiB global headers:0KiB muxing overhead: unknown
frame=34443 fps=470 q=-0.0 Lsize=N/A time=00:23:56.56 bitrate=N/A speed=19.6x    
